<svg xmlns="http://www.w3.org/2000/svg" viewBox="0 0 200 200">
  <circle cx="100" cy="100" r="88" fill="#df8949" opacity="0.12"/>
  <rect x="26" y="66" width="148" height="68" rx="10" fill="#673d1e"/>
  <rect x="31" y="71" width="138" height="58" rx="6" fill="#df8949"/>
  <g fill="#f6e3d5"><rect x="38" y="78" width="14" height="14" rx="3"/><rect x="56" y="78" width="14" height="14" rx="3"/><rect x="74" y="78" width="14" height="14" rx="3"/><rect x="92" y="78" width="14" height="14" rx="3"/><rect x="110" y="78" width="14" height="14" rx="3"/><rect x="128" y="78" width="14" height="14" rx="3"/><rect x="146" y="78" width="16" height="14" rx="3"/><rect x="38" y="96" width="18" height="14" rx="3"/><rect x="60" y="96" width="14" height="14" rx="3"/><rect x="78" y="96" width="14" height="14" rx="3"/><rect x="96" y="96" width="14" height="14" rx="3"/><rect x="114" y="96" width="14" height="14" rx="3"/><rect x="132" y="96" width="30" height="14" rx="3"/><rect x="38" y="114" width="20" height="10" rx="3"/><rect x="62" y="114" width="76" height="10" rx="3"/><rect x="142" y="114" width="20" height="10" rx="3"/></g>
  <rect x="31" y="126" width="138" height="3" rx="1.5" fill="#ffd166"/>
</svg>
